<?xml version="1.0" encoding="UTF-8" standalone="no"?>
<svg
   xmlns:dc="http://purl.org/dc/elements/1.1/"
   xmlns:cc="http://creativecommons.org/ns#"
   xmlns:rdf="http://www.w3.org/1999/02/22-rdf-syntax-ns#"
   xmlns:svg="http://www.w3.org/2000/svg"
   xmlns="http://www.w3.org/2000/svg"
   xmlns:sodipodi="http://sodipodi.sourceforge.net/DTD/sodipodi-0.dtd"
   xmlns:inkscape="http://www.inkscape.org/namespaces/inkscape"
   width="68.297775mm"
   height="102.16444mm"
   viewBox="0 0 241.99999 362"
   id="svg6717"
   version="1.1"
   inkscape:version="1.0.2 (e86c870879, 2021-01-15)"
   sodipodi:docname="b_0.svg">
  <defs
     id="defs6719" />
  <sodipodi:namedview
     id="base"
     pagecolor="#ffffff"
     bordercolor="#666666"
     borderopacity="1.0"
     inkscape:pageopacity="0.0"
     inkscape:pageshadow="2"
     inkscape:zoom="1.979899"
     inkscape:cx="203.65529"
     inkscape:cy="208.21534"
     inkscape:document-units="px"
     inkscape:current-layer="layer1"
     showgrid="false"
     fit-margin-top="0"
     fit-margin-left="0"
     fit-margin-right="0"
     fit-margin-bottom="0"
     inkscape:window-width="1868"
     inkscape:window-height="1056"
     inkscape:window-x="52"
     inkscape:window-y="0"
     inkscape:window-maximized="1"
     inkscape:document-rotation="0" />
  <metadata
     id="metadata6722">
    <rdf:RDF>
      <cc:Work
         rdf:about="">
        <dc:format>image/svg+xml</dc:format>
        <dc:type
           rdf:resource="http://purl.org/dc/dcmitype/StillImage" />
        <dc:title />
      </cc:Work>
    </rdf:RDF>
  </metadata>
  <g
     inkscape:label="Ebene 1"
     inkscape:groupmode="layer"
     id="layer1"
     transform="translate(-236.14284,-337.07646)">
    <rect
       style="fill:#ffffff;fill-opacity:1;fill-rule:evenodd;stroke:#000000;stroke-width:1.99969;stroke-miterlimit:4;stroke-dasharray:none"
       id="rect2987-1-8"
       y="338.07645"
       x="237.14284"
       ry="40.000004"
       rx="40.000004"
       height="360.00003"
       width="240.00002" />
    <rect
       style="fill:#5bcefa;fill-opacity:1;fill-rule:evenodd;stroke:none;stroke-width:4"
       id="rect3757-5-07"
       y="358.07645"
       x="257.14282"
       ry="20.000002"
       rx="20.000002"
       height="320.00003"
       width="200.00002" />
    <path
       fill="#f5a9b8"
       d="m 257.14283,422.0767 h 199.9997 v 191.99982 h -199.9997 z"
       id="path7858"
       style="stroke-width:0.408248" />
    <path
       fill="#ffffff"
       d="m 257.14283,486.07664 h 199.9997 v 63.99994 h -199.9997 z"
       id="path7860"
       style="stroke-width:0.408248;stroke:none"
       inkscape:label="path7860" />
    <path
       inkscape:connector-curvature="0"
       style="fill:#ffffff;fill-opacity:1;fill-rule:evenodd;stroke:#000000;stroke-width:1.99969;stroke-miterlimit:4;stroke-dasharray:none;stroke-opacity:1"
       id="path3773-0-4-8-4-2-7"
       d="m 417.14284,418.07635 c -88.36557,0 -160.00001,71.63444 -160.00001,160.00001 0,22.0914 17.9086,40 40,40 88.36557,0 160.00001,-71.63444 160.00001,-160.00001 0,-22.0914 -17.9086,-40 -40,-40 z" />
    <path
       inkscape:connector-curvature="0"
       style="fill:#5bcefa;fill-opacity:1;fill-rule:evenodd;stroke:none;stroke-width:4"
       id="path3962-7-43"
       d="m 357.14284,458.07639 c -22.09141,0 -40.00001,17.9086 -40.00001,40 v 40.00001 c 0,22.0914 17.9086,40 40.00001,40 22.0914,0 40,-17.9086 40,-40 v -40.00001 c 0,-22.0914 -17.9086,-40 -40,-40 z m 0,20 c 11.04568,0 20,8.95432 20,20 v 40.00001 c 0,11.04568 -8.95432,20 -20,20 -11.04568,0 -20.00001,-8.95432 -20.00001,-20 v -40.00001 c 0,-11.04568 8.95433,-20 20.00001,-20 z" />
    <path
       inkscape:connector-curvature="0"
       style="fill:#ffffff;fill-opacity:1;fill-rule:evenodd;stroke:none;stroke-width:4"
       id="path3962-7-1-1"
       d="m 287.14283,368.07639 c -11.04572,0 -20,8.95428 -20,20 v 20 c 0,11.04572 8.95428,20 20,20 11.04568,0 20,-8.95428 20,-20 v -20 c 0,-11.04572 -8.95432,-20 -20,-20 z m 0,10 c 5.52284,0 10,4.47716 10,10 v 20 c 0,5.52284 -4.47716,10 -10,10 -5.52284,0 -10,-4.47716 -10,-10 v -20 c 0,-5.52284 4.47716,-10 10,-10 z" />
    <path
       inkscape:connector-curvature="0"
       style="fill:#ffffff;fill-opacity:1;fill-rule:evenodd;stroke:none;stroke-width:4"
       id="path3962-7-1-2-3"
       d="m 427.14284,608.0764 c -11.04572,0 -20,8.95428 -20,20 v 20 c 0,11.04572 8.95428,20 20,20 11.04568,0 20,-8.95428 20,-20 v -20 c 0,-11.04572 -8.95432,-20 -20,-20 z m 0,10 c 5.52284,0 10,4.47716 10,10 v 20 c 0,5.52284 -4.47716,10 -10,10 -5.52284,0 -10,-4.47716 -10,-10 v -20 c 0,-5.52284 4.47716,-10 10,-10 z" />
  </g>
</svg>
