<?xml version="1.0" encoding="UTF-8" standalone="no"?>
<svg
   xmlns:dc="http://purl.org/dc/elements/1.1/"
   xmlns:cc="http://creativecommons.org/ns#"
   xmlns:rdf="http://www.w3.org/1999/02/22-rdf-syntax-ns#"
   xmlns:svg="http://www.w3.org/2000/svg"
   xmlns="http://www.w3.org/2000/svg"
   xmlns:sodipodi="http://sodipodi.sourceforge.net/DTD/sodipodi-0.dtd"
   xmlns:inkscape="http://www.inkscape.org/namespaces/inkscape"
   width="68.297775mm"
   height="102.16444mm"
   viewBox="0 0 241.99999 362"
   id="svg6717"
   version="1.1"
   inkscape:version="1.0.2 (e86c870879, 2021-01-15)"
   sodipodi:docname="g_3.svg">
  <defs
     id="defs6719" />
  <sodipodi:namedview
     id="base"
     pagecolor="#ffffff"
     bordercolor="#666666"
     borderopacity="1.0"
     inkscape:pageopacity="0.0"
     inkscape:pageshadow="2"
     inkscape:zoom="1.979899"
     inkscape:cx="56.062211"
     inkscape:cy="208.21534"
     inkscape:document-units="px"
     inkscape:current-layer="layer1"
     showgrid="false"
     fit-margin-top="0"
     fit-margin-left="0"
     fit-margin-right="0"
     fit-margin-bottom="0"
     inkscape:window-width="1920"
     inkscape:window-height="1029"
     inkscape:window-x="0"
     inkscape:window-y="0"
     inkscape:window-maximized="1"
     inkscape:document-rotation="0" />
  <metadata
     id="metadata6722">
    <rdf:RDF>
      <cc:Work
         rdf:about="">
        <dc:format>image/svg+xml</dc:format>
        <dc:type
           rdf:resource="http://purl.org/dc/dcmitype/StillImage" />
        <dc:title />
      </cc:Work>
    </rdf:RDF>
  </metadata>
  <g
     inkscape:label="Ebene 1"
     inkscape:groupmode="layer"
     id="layer1"
     transform="translate(-236.14284,-337.07646)">
    <g
       inkscape:label="Ebene 1"
       id="layer1-4"
       transform="translate(-9.1461334e-5,-1.109877e-4)">
      <rect
         style="fill:#ffffff;fill-opacity:1;fill-rule:evenodd;stroke:#000000;stroke-width:1.99969;stroke-miterlimit:4;stroke-dasharray:none"
         id="rect2987-8-5-81-7-5-7-3"
         y="338.07642"
         x="237.14278"
         ry="40.000004"
         rx="40.000004"
         height="360.00003"
         width="240.00002" />
      <g
         id="g926"
         transform="matrix(0.66666564,0,0,1.5999985,257.14279,358.07642)">
        <path
           id="path906"
           style="fill:#2c2c2c;fill-opacity:1;stroke-width:1.10165"
           d="m 43.732422,22.400391 c -11.818668,0 -21.332031,9.513363 -21.332031,21.332031 V 342.40039 c 0,11.81867 9.513363,21.33203 21.332031,21.33203 H 214.40039 c 11.81867,0 21.33203,-9.51336 21.33203,-21.33203 V 43.732422 c 0,-11.818668 -9.51336,-21.332031 -21.33203,-21.332031 z"
           transform="matrix(1.4062522,0,0,0.58593806,-31.499974,-13.124987)" />
        <path
           id="path908"
           style="fill:#9c59d1;fill-opacity:1;stroke-width:1.10165"
           d="m 43.732422,22.400391 c -11.818668,0 -21.332031,9.513363 -21.332031,21.332031 V 278.40039 H 235.73242 V 43.732422 c 0,-11.818668 -9.51336,-21.332031 -21.33203,-21.332031 z"
           transform="matrix(1.4062522,0,0,0.58593806,-31.499974,-13.124987)" />
        <path
           id="path910"
           style="fill:#fcfcfc;fill-opacity:1;stroke-width:1.10165"
           d="m 43.732422,22.400391 c -11.818668,0 -21.332031,9.513363 -21.332031,21.332031 V 193.06641 H 235.73242 V 43.732422 c 0,-11.818668 -9.51336,-21.332031 -21.33203,-21.332031 z"
           transform="matrix(1.4062522,0,0,0.58593806,-31.499974,-13.124987)" />
        <path
           id="path912"
           style="fill:#fcf434;fill-opacity:1;stroke-width:1.10165"
           d="m 43.732422,22.400391 c -11.818668,0 -21.332031,9.513363 -21.332031,21.332031 V 107.73242 H 235.73242 V 43.732422 c 0,-11.818668 -9.51336,-21.332031 -21.33203,-21.332031 z"
           transform="matrix(1.4062522,0,0,0.58593806,-31.499974,-13.124987)" />
      </g>
      <path
         inkscape:connector-curvature="0"
         style="fill:#ffffff;fill-opacity:1;fill-rule:evenodd;stroke:#000000;stroke-width:1.99969;stroke-miterlimit:4;stroke-dasharray:none;stroke-opacity:1"
         id="path3773-0-4-8-4-60-3-86-29-2-7-7"
         d="m 417.14279,418.07632 c -88.36556,0 -160.00001,71.63444 -160.00001,160.00001 0,22.0914 17.9086,40 40.00001,40 88.36556,0 160,-71.63445 160,-160.00001 0,-22.0914 -17.9086,-40 -40,-40 z" />
    </g>
    <path
       inkscape:connector-curvature="0"
       style="fill:#9c59d1;fill-opacity:1;stroke:none;stroke-width:4"
       id="rect3163-52-9-8-1-1-2-7-3-6-4-6-1-8-7-0-1-3"
       d="m 357.14284,458.07639 c -16.56856,0 -30,13.43144 -30,30 h 20 c 0,-5.52284 4.47716,-10 10,-10 5.52284,0 10,4.47716 10,10 0,5.52284 -4.47716,10 -10,10 h -12 v 20.00001 h 12 c 11.08,0 20,8.92 20,20 0,11.08 -8.92,20 -20,20 -11.08,0 -20,-8.92 -20,-20 h -20 c 0,22.16 17.84,40 40,40 22.16,0 40,-17.84 40,-40 0,-13.17576 -6.35328,-24.72044 -16.125,-32.00001 3.80776,-5.02952 6.125,-11.20528 6.125,-18 0,-16.56856 -13.43144,-30 -30,-30 z" />
    <path
       inkscape:connector-curvature="0"
       style="fill:#000000;fill-opacity:1;stroke:none;stroke-width:4"
       id="rect3163-52-9-8-1-1-2-7-3-6-4-6-1-8-7-0-6-2-1"
       d="m 287.14284,368.07639 c -8.28428,0 -15,6.71572 -15,15 h 10 c 0,-2.76144 2.2386,-5 5,-5 2.7614,0 5,2.23856 5,5 0,2.7614 -2.2386,5 -5,5 h -6 v 9.99996 h 6 c 5.54,0 10,4.46 10,10.00004 0,5.54 -4.46,10 -10,10 -5.54,0 -10,-4.46 -10,-10 h -10 c 0,11.08 8.92,20 20,20 11.08,0 20,-8.92 20,-20 0,-6.58788 -3.17664,-12.36024 -8.06252,-16 1.90392,-2.5148 3.06252,-5.60264 3.06252,-9 0,-8.28428 -6.71572,-15 -15,-15 z" />
    <path
       inkscape:connector-curvature="0"
       style="fill:#ffffff;fill-opacity:1;stroke:none;stroke-width:4"
       id="rect3163-52-9-8-1-1-2-7-3-6-4-6-1-8-7-0-6-2-6-5"
       d="m 427.14285,668.0764 c 8.28428,0 15,-6.71572 15,-15 h -10 c 0,2.76144 -2.2386,5 -5,5 -2.7614,0 -5,-2.23856 -5,-5 0,-2.7614 2.2386,-5 5,-5 h 6 v -9.99996 h -6 c -5.54,0 -10.00001,-4.46 -10.00001,-10.00004 0,-5.54 4.46001,-10 10.00001,-10 5.54,0 10,4.46 10,10 h 10 c 0,-11.08 -8.92,-20 -20,-20 -11.08001,0 -20.00001,8.92 -20.00001,20 0,6.58788 3.17664,12.36024 8.06252,16 -1.90392,2.5148 -3.06252,5.60264 -3.06252,9 0,8.28428 6.71573,15 15.00001,15 z" />
  </g>
</svg>
