<?xml version="1.0" encoding="UTF-8" standalone="no"?>
<svg
   xmlns:dc="http://purl.org/dc/elements/1.1/"
   xmlns:cc="http://creativecommons.org/ns#"
   xmlns:rdf="http://www.w3.org/1999/02/22-rdf-syntax-ns#"
   xmlns:svg="http://www.w3.org/2000/svg"
   xmlns="http://www.w3.org/2000/svg"
   xmlns:sodipodi="http://sodipodi.sourceforge.net/DTD/sodipodi-0.dtd"
   xmlns:inkscape="http://www.inkscape.org/namespaces/inkscape"
   width="68.297775mm"
   height="102.16444mm"
   viewBox="0 0 241.99999 362"
   id="svg6717"
   version="1.1"
   inkscape:version="1.0.2 (e86c870879, 2021-01-15)"
   sodipodi:docname="r_skip.svg">
  <defs
     id="defs6719" />
  <sodipodi:namedview
     id="base"
     pagecolor="#ffffff"
     bordercolor="#666666"
     borderopacity="1.0"
     inkscape:pageopacity="0.0"
     inkscape:pageshadow="2"
     inkscape:zoom="1.979899"
     inkscape:cx="61.091947"
     inkscape:cy="200.79393"
     inkscape:document-units="px"
     inkscape:current-layer="layer1-3"
     showgrid="false"
     fit-margin-top="0"
     fit-margin-left="0"
     fit-margin-right="0"
     fit-margin-bottom="0"
     inkscape:window-width="1920"
     inkscape:window-height="1029"
     inkscape:window-x="0"
     inkscape:window-y="0"
     inkscape:window-maximized="1"
     inkscape:document-rotation="0" />
  <metadata
     id="metadata6722">
    <rdf:RDF>
      <cc:Work
         rdf:about="">
        <dc:format>image/svg+xml</dc:format>
        <dc:type
           rdf:resource="http://purl.org/dc/dcmitype/StillImage" />
        <dc:title />
      </cc:Work>
    </rdf:RDF>
  </metadata>
  <g
     inkscape:label="Ebene 1"
     inkscape:groupmode="layer"
     id="layer1"
     transform="translate(-236.14284,-337.07646)">
    <g
       inkscape:label="Ebene 1"
       id="layer1-3"
       transform="translate(2.4755859e-6,1.3466797e-5)">
      <rect
         style="fill:#ffffff;fill-opacity:1;fill-rule:evenodd;stroke:#000000;stroke-width:2;stroke-miterlimit:4;stroke-dasharray:none"
         id="rect2987-1"
         y="338.07645"
         x="237.14284"
         ry="40"
         rx="40"
         height="360"
         width="240" />
      <g
         id="g920"
         transform="matrix(0.25739986,0,0,0.66666603,257.34019,358.18614)">
        <path
           id="rect894"
           style="fill:#9f54bd;fill-opacity:1;stroke-width:0.441862"
           d="m 41.484375,22.517578 c -9.764237,1.014637 -17.52715,8.563498 -18.873047,18.222656 V 345.39453 c 1.447794,10.39045 10.319442,18.33789 21.121094,18.33789 H 214.40039 c 11.81867,0 21.33203,-9.51336 21.33203,-21.33203 V 43.732422 c 0,-11.058435 -8.32885,-20.097442 -19.08203,-21.214844 z"
           transform="matrix(3.6421932,0,0,1.4062514,-82.351832,-31.66455)" />
        <path
           id="rect896"
           style="fill:#5555ff;fill-opacity:1;stroke-width:0.441862"
           d="m 41.484375,22.517578 c -9.764237,1.014637 -17.52715,8.563498 -18.873047,18.222656 V 306.96094 H 235.73242 V 43.732422 c 0,-11.058435 -8.32885,-20.097442 -19.08203,-21.214844 z"
           transform="matrix(3.6421932,0,0,1.4062514,-82.351832,-31.66455)" />
        <path
           id="rect898"
           style="fill:#55aa55;fill-opacity:1;stroke-width:0.441862"
           d="m 41.484375,22.517578 c -9.764237,1.014637 -17.52715,8.563498 -18.873047,18.222656 V 250.07227 H 235.73242 V 43.732422 c 0,-11.058435 -8.32885,-20.097442 -19.08203,-21.214844 z"
           transform="matrix(3.6421932,0,0,1.4062514,-82.351832,-31.66455)" />
        <path
           id="rect900"
           style="fill:#ffaa00;fill-opacity:1;stroke-width:0.441862"
           d="m 41.484375,22.517578 c -9.764237,1.014637 -17.52715,8.563498 -18.873047,18.222656 V 193.18359 H 235.73242 V 43.732422 c 0,-11.058435 -8.32885,-20.097442 -19.08203,-21.214844 z"
           transform="matrix(3.6421932,0,0,1.4062514,-82.351832,-31.66455)" />
        <path
           id="rect902"
           style="fill:#ff6f00;fill-opacity:1;stroke-width:0.441862"
           d="m 41.484375,22.517578 c -9.764237,1.014637 -17.52715,8.563498 -18.873047,18.222656 V 136.29492 H 235.73242 V 43.732422 c 0,-11.058435 -8.32885,-20.097442 -19.08203,-21.214844 z"
           transform="matrix(3.6421932,0,0,1.4062514,-82.351832,-31.66455)" />
        <path
           id="rect904"
           style="fill:#ff5555;fill-opacity:1;stroke-width:0.441862"
           d="m 41.482422,22.517578 c -0.570648,0.05935 -1.133361,0.144944 -1.689453,0.248047 -0.05918,0.01097 -0.118734,0.02175 -0.177735,0.0332 -0.533301,0.103557 -1.058111,0.226881 -1.576172,0.369141 -0.07644,0.02098 -0.15243,0.04265 -0.228515,0.06445 -0.530381,0.152052 -1.054076,0.320656 -1.566406,0.511719 -0.01454,0.0054 -0.02845,0.01213 -0.04297,0.01758 -0.531299,0.199467 -1.05258,0.420579 -1.5625,0.660156 -0.01528,0.0072 -0.03161,0.01232 -0.04687,0.01953 -0.441808,0.208867 -0.870591,0.440067 -1.294922,0.677735 -0.342169,0.191616 -0.673826,0.399771 -1.003906,0.609375 -0.207581,0.131858 -0.420462,0.255766 -0.623047,0.394531 -0.509862,0.349125 -1.005992,0.716386 -1.482422,1.107422 -0.126971,0.104251 -0.24271,0.221012 -0.367188,0.328125 -0.354855,0.30524 -0.705221,0.615645 -1.039062,0.943359 -0.192948,0.189488 -0.37297,0.391192 -0.558594,0.587891 -0.246152,0.260733 -0.491778,0.521965 -0.724609,0.794922 -0.194468,0.228089 -0.379613,0.464877 -0.564453,0.701172 -0.202012,0.258158 -0.399699,0.51953 -0.589844,0.787109 -0.182971,0.257588 -0.36158,0.517241 -0.533203,0.783203 -0.172752,0.267599 -0.335187,0.542633 -0.496094,0.818359 -0.187114,0.320805 -0.378261,0.63942 -0.548828,0.970703 -0.0061,0.01192 -0.01342,0.02323 -0.01953,0.03516 -0.263579,0.514325 -0.508441,1.040358 -0.730469,1.578125 -0.44202,1.070602 -0.79747,2.186713 -1.0625,3.33789 -0.0084,0.03642 -0.01719,0.07288 -0.02539,0.109375 -0.128049,0.569945 -0.234684,1.14788 -0.316406,1.734375 V 79.40625 H 235.73242 V 43.732422 c 0,-0.652272 -0.0331,-1.296585 -0.0898,-1.933594 -0.005,-0.05517 -0.008,-0.11097 -0.0137,-0.166016 -0.0589,-0.608746 -0.14723,-1.208404 -0.25586,-1.800781 -0.0137,-0.07467 -0.0246,-0.150223 -0.0391,-0.224609 -0.11372,-0.584855 -0.25389,-1.160129 -0.41406,-1.726563 -0.0197,-0.06961 -0.0382,-0.139665 -0.0586,-0.208984 -0.16453,-0.559899 -0.35058,-1.108976 -0.5586,-1.648437 -0.0295,-0.07648 -0.0595,-0.152472 -0.0898,-0.228516 -0.21315,-0.534218 -0.44718,-1.058657 -0.70117,-1.570313 -0.0345,-0.06942 -0.0703,-0.138046 -0.10547,-0.207031 -0.17122,-0.335629 -0.36456,-0.657468 -0.55273,-0.982422 -0.17745,-0.306382 -0.35681,-0.611805 -0.54883,-0.908203 -0.16971,-0.261954 -0.34857,-0.517687 -0.5293,-0.771484 -0.2091,-0.293599 -0.42311,-0.58303 -0.64648,-0.865235 -0.18051,-0.228045 -0.36517,-0.451576 -0.55469,-0.671875 -0.2448,-0.284544 -0.4985,-0.560928 -0.75781,-0.832031 -0.20341,-0.212618 -0.40908,-0.422928 -0.6211,-0.626953 -0.26169,-0.251848 -0.53231,-0.494145 -0.80664,-0.732422 -0.22256,-0.193273 -0.44521,-0.386289 -0.67578,-0.570312 -0.29071,-0.232063 -0.59161,-0.451123 -0.89453,-0.667969 -0.23836,-0.170593 -0.4751,-0.343051 -0.7207,-0.503906 -0.31103,-0.203734 -0.63295,-0.392464 -0.95508,-0.580078 -0.28682,-0.167 -0.57003,-0.340341 -0.86524,-0.494141 -0.0785,-0.04091 -0.15723,-0.08113 -0.23632,-0.121094 -0.50904,-0.257146 -1.02883,-0.494358 -1.56055,-0.710937 -0.0597,-0.02433 -0.11969,-0.04846 -0.17969,-0.07227 -0.55766,-0.221221 -1.12515,-0.421167 -1.70508,-0.595703 -0.0382,-0.0115 -0.0769,-0.02191 -0.11523,-0.0332 -0.60007,-0.17691 -1.21086,-0.332487 -1.83203,-0.457032 -0.004,-7.77e-4 -0.008,-0.0012 -0.0117,-0.002 -0.01,-0.0019 -0.0197,-0.002 -0.0293,-0.0039 -0.64179,-0.127388 -1.29355,-0.228073 -1.95508,-0.296875 -6.4e-4,-6.7e-5 -0.001,6.7e-5 -0.002,0 H 41.484375 c -6.46e-4,6.7e-5 -0.0013,-6.7e-5 -0.002,0 z"
           transform="matrix(3.6421932,0,0,1.4062514,-82.351832,-31.66455)" />
      </g>
      <path
         id="path3773-0-4-8-4-2"
         style="fill:#ffffff;fill-opacity:1;fill-rule:evenodd;stroke:none;stroke-width:4.26667"
         d="m 193.06641,86.400391 c -94.256599,0 -170.666019,76.409419 -170.666019,170.666019 0,23.56416 19.101856,42.66601 42.666015,42.66601 94.256594,0 170.666014,-76.40942 170.666014,-170.66601 0,-23.56416 -19.10185,-42.666019 -42.66601,-42.666019 z m -63.86719,42.666019 c 16.37901,0.0214 32.7207,6.28771 45.20117,18.80078 24.96098,25.02613 24.89332,65.57226 -0.13281,90.5332 -25.02613,24.96098 -65.57226,24.89332 -90.533205,-0.13281 -24.960981,-25.02613 -24.89332,-65.57227 0.132813,-90.5332 12.513066,-12.48039 28.953022,-18.68931 45.332032,-18.66797 z m -0.13281,21.33398 c -10.91934,-0.0142 -21.79076,4.08009 -30.132816,12.40039 -14.077056,14.04053 -16.310176,35.49058 -6.666016,51.86524 l 58.398442,-58.39844 c -6.63373,-3.90362 -14.13346,-5.85866 -21.59961,-5.86719 z m 36.80078,20.93359 -58.53321,58.4004 c 16.35568,9.72066 37.77567,7.65439 51.86719,-6.4004 14.10513,-14.06848 16.37682,-35.61287 6.66602,-52 z"
         transform="matrix(0.93750002,0,0,0.93750002,236.14284,337.07645)" />
    </g>
    <path
       inkscape:connector-curvature="0"
       style="fill:#ffffff;fill-opacity:1;fill-rule:evenodd;stroke:none;stroke-width:4"
       id="path5897-6-8-2"
       d="m 297.20514,368.07639 c -7.6762,-0.012 -15.3816,2.89956 -21.246,8.7492 -11.72876,11.69932 -11.7606,30.70364 -0.0624,42.43356 11.69824,11.72988 30.7008,11.76176 42.4296,0.0624 11.72876,-11.69932 11.76064,-30.70364 0.0624,-42.43352 -5.84916,-5.865 -13.50728,-8.80168 -21.1836,-8.81172 z m -0.0624,9.99912 c 3.49908,0.004 7.01416,0.92004 10.12312,2.74968 l -27.36988,27.37248 c -4.51992,-7.67492 -3.473,-17.72936 3.1244,-24.31024 3.90964,-3.8998 9.00488,-5.81864 14.12236,-5.81192 z m 17.2468,9.81152 c 4.55108,7.6808 3.48612,17.7788 -3.12444,24.37276 -6.60416,6.5876 -16.64268,7.55588 -24.30796,2.99972 z" />
    <path
       inkscape:connector-curvature="0"
       style="fill:#ffffff;fill-opacity:1;fill-rule:evenodd;stroke:none;stroke-width:4"
       id="path5897-6-8-5"
       d="m 417.20515,608.0764 c -7.6762,-0.012 -15.3816,2.89956 -21.246,8.7492 -11.72876,11.69932 -11.7606,30.70364 -0.0624,42.43356 11.69824,11.72988 30.7008,11.76176 42.4296,0.0624 11.72876,-11.69932 11.76064,-30.70364 0.0624,-42.43352 -5.84916,-5.865 -13.50728,-8.80168 -21.1836,-8.81172 z m -0.0624,9.99912 c 3.49908,0.004 7.01416,0.92004 10.12312,2.74968 l -27.36988,27.37248 c -4.51992,-7.67492 -3.473,-17.72936 3.1244,-24.31024 3.90964,-3.8998 9.00488,-5.81864 14.12236,-5.81192 z m 17.2468,9.81152 c 4.55108,7.6808 3.48612,17.7788 -3.12444,24.37276 -6.60416,6.5876 -16.64268,7.55588 -24.30796,2.99972 z" />
  </g>
</svg>
