<?xml version="1.0" encoding="UTF-8" standalone="no"?>
<svg
   xmlns:dc="http://purl.org/dc/elements/1.1/"
   xmlns:cc="http://creativecommons.org/ns#"
   xmlns:rdf="http://www.w3.org/1999/02/22-rdf-syntax-ns#"
   xmlns:svg="http://www.w3.org/2000/svg"
   xmlns="http://www.w3.org/2000/svg"
   xmlns:sodipodi="http://sodipodi.sourceforge.net/DTD/sodipodi-0.dtd"
   xmlns:inkscape="http://www.inkscape.org/namespaces/inkscape"
   width="68.297775mm"
   height="102.16444mm"
   viewBox="0 0 241.99999 362"
   id="svg6717"
   version="1.1"
   inkscape:version="1.0.2 (e86c870879, 2021-01-15)"
   sodipodi:docname="y_2.svg">
  <defs
     id="defs6719" />
  <sodipodi:namedview
     id="base"
     pagecolor="#ffffff"
     bordercolor="#666666"
     borderopacity="1.0"
     inkscape:pageopacity="0.0"
     inkscape:pageshadow="2"
     inkscape:zoom="1.979899"
     inkscape:cx="61.091947"
     inkscape:cy="200.79393"
     inkscape:document-units="px"
     inkscape:current-layer="layer1"
     showgrid="false"
     fit-margin-top="0"
     fit-margin-left="0"
     fit-margin-right="0"
     fit-margin-bottom="0"
     inkscape:window-width="1920"
     inkscape:window-height="1029"
     inkscape:window-x="0"
     inkscape:window-y="0"
     inkscape:window-maximized="1"
     inkscape:document-rotation="0" />
  <metadata
     id="metadata6722">
    <rdf:RDF>
      <cc:Work
         rdf:about="">
        <dc:format>image/svg+xml</dc:format>
        <dc:type
           rdf:resource="http://purl.org/dc/dcmitype/StillImage" />
        <dc:title />
      </cc:Work>
    </rdf:RDF>
  </metadata>
  <g
     inkscape:label="Ebene 1"
     inkscape:groupmode="layer"
     id="layer1"
     transform="translate(-236.14284,-337.07646)">
    <g
       inkscape:label="Ebene 1"
       id="layer1-6"
       transform="translate(6.3510742e-5,7.4501953e-5)">
      <rect
         style="fill:#ffffff;fill-opacity:1;fill-rule:evenodd;stroke:#000000;stroke-width:2;stroke-miterlimit:4;stroke-dasharray:none"
         id="rect2987-8-5-81-7-4-9-0"
         y="338.07639"
         x="237.14278"
         ry="40.000004"
         rx="40.000004"
         height="360.00003"
         width="240.00002" />
      <g
         id="g915"
         transform="matrix(0.24999962,0,0,0.66666603,257.14279,358.07639)">
        <path
           id="path898"
           style="fill:#21b1ff;fill-opacity:1;stroke-width:0.435464"
           d="m 43.732422,22.400391 c -11.818666,0 -21.332031,9.513365 -21.332031,21.332031 V 342.40039 c 0,11.81868 9.513365,21.33203 21.332031,21.33203 H 214.40039 c 11.81867,0 21.33203,-9.51335 21.33203,-21.33203 V 43.732422 c 0,-11.818666 -9.51336,-21.332031 -21.33203,-21.332031 z"
           transform="matrix(3.7500058,0,0,1.4062514,-83.999928,-31.499925)" />
        <path
           id="path900"
           style="fill:#ffd800;fill-opacity:1;stroke-width:0.435464"
           d="m 43.732422,22.400391 c -11.818668,0 -21.332031,9.513363 -21.332031,21.332031 V 249.95508 H 235.73242 V 43.732422 c 0,-11.818668 -9.51336,-21.332031 -21.33203,-21.332031 z"
           transform="matrix(3.7500058,0,0,1.4062514,-83.999928,-31.499925)" />
        <path
           id="path902"
           style="fill:#ff218c;fill-opacity:1;stroke-width:0.435464"
           d="m 43.732422,22.400391 c -11.818668,0 -21.332031,9.513363 -21.332031,21.332031 V 136.17773 H 235.73242 V 43.732422 c 0,-11.818668 -9.51336,-21.332031 -21.33203,-21.332031 z"
           transform="matrix(3.7500058,0,0,1.4062514,-83.999928,-31.499925)" />
      </g>
      <path
         inkscape:connector-curvature="0"
         style="fill:#ffffff;fill-opacity:1;fill-rule:evenodd;stroke:none;stroke-width:4"
         id="path3773-0-4-8-4-60-3-86-29-8-8-8"
         d="m 417.14279,418.0763 c -88.36556,0 -160.00001,71.63444 -160.00001,160.00001 0,22.0914 17.9086,40 40.00001,40 88.36556,0 160,-71.63444 160,-160.00001 0,-22.0914 -17.9086,-40 -40,-40 z" />
    </g>
    <path
       inkscape:connector-curvature="0"
       style="fill:#ffd800;fill-opacity:1;stroke:none;stroke-width:4"
       id="rect3163-52-9-8-1-1-2-7-3-6-5-4"
       d="m 353.14284,458.07643 c -22.16,0 -40,17.83996 -40,39.99996 v 4 h 20 v -4 c 0,-11.08 8.92,-20 20,-20 11.08,0 20,8.92 20,20 0,4.51 -3.74204,13.36061 -7.6498,16.43609 -21.21924,16.69976 -20.99524,13.94176 -52.3502,35.56392 v 28 h 40 40 v -20 -8 h -20 v 8 h -20 -16 c 24.76028,-17.43496 26.5708,-17.01244 45.97232,-34.375 6.21632,-5.56304 10.02768,-16.60421 10.02768,-25.62501 0,-22.16 -17.84,-39.99996 -40,-39.99996 z" />
    <path
       inkscape:connector-curvature="0"
       style="fill:#ffffff;fill-opacity:1;stroke:none;stroke-width:4"
       id="rect3163-52-9-8-1-1-2-7-3-6-0-9-9"
       d="m 287.14284,368.07639 c -11.08,0 -20,8.92 -20,20 v 2 h 10 v -2 c 0,-5.54 4.46,-10 10,-10 5.54,0 10,4.46 10,10 0,2.255 -1.87104,6.68028 -3.82492,8.21804 -10.6096,8.34988 -10.4976,6.97088 -26.17508,17.78196 v 14 h 20 20 v -10 -4 h -10 v 4 h -10 -8 c 12.38012,-8.71748 13.2854,-8.5062 22.98616,-17.18748 3.10816,-2.78152 5.01384,-8.30212 5.01384,-12.81252 0,-11.08 -8.92,-20 -20,-20 z" />
    <path
       inkscape:connector-curvature="0"
       style="fill:#ffffff;fill-opacity:1;stroke:none;stroke-width:4"
       id="rect3163-52-9-8-1-1-2-7-3-6-0-4-5"
       d="m 427.14284,668.0764 c 11.08,0 20,-8.92 20,-20 v -2 h -10 v 2 c 0,5.54 -4.46,10 -10,10 -5.54,0 -10,-4.46 -10,-10 0,-2.255 1.87104,-6.68028 3.82492,-8.21804 10.6096,-8.34988 10.4976,-6.97088 26.17508,-17.78196 v -14 h -20 -20 v 10 4 h 10 v -4 h 10 8 c -12.38012,8.71748 -13.2854,8.5062 -22.98616,17.18748 -3.10816,2.78152 -5.01384,8.30212 -5.01384,12.81252 0,11.08 8.92,20 20,20 z" />
  </g>
</svg>
