<?xml version="1.0" encoding="UTF-8" standalone="no"?>
<svg
   xmlns:dc="http://purl.org/dc/elements/1.1/"
   xmlns:cc="http://creativecommons.org/ns#"
   xmlns:rdf="http://www.w3.org/1999/02/22-rdf-syntax-ns#"
   xmlns:svg="http://www.w3.org/2000/svg"
   xmlns="http://www.w3.org/2000/svg"
   xmlns:sodipodi="http://sodipodi.sourceforge.net/DTD/sodipodi-0.dtd"
   xmlns:inkscape="http://www.inkscape.org/namespaces/inkscape"
   width="68.297775mm"
   height="102.16444mm"
   viewBox="0 0 241.99999 362"
   id="svg6717"
   version="1.1"
   inkscape:version="1.0.2 (e86c870879, 2021-01-15)"
   sodipodi:docname="y_4.svg">
  <defs
     id="defs6719" />
  <sodipodi:namedview
     id="base"
     pagecolor="#ffffff"
     bordercolor="#666666"
     borderopacity="1.0"
     inkscape:pageopacity="0.0"
     inkscape:pageshadow="2"
     inkscape:zoom="1.979899"
     inkscape:cx="61.091947"
     inkscape:cy="200.79393"
     inkscape:document-units="px"
     inkscape:current-layer="layer1"
     showgrid="false"
     fit-margin-top="0"
     fit-margin-left="0"
     fit-margin-right="0"
     fit-margin-bottom="0"
     inkscape:window-width="1920"
     inkscape:window-height="1029"
     inkscape:window-x="0"
     inkscape:window-y="0"
     inkscape:window-maximized="1"
     inkscape:document-rotation="0" />
  <metadata
     id="metadata6722">
    <rdf:RDF>
      <cc:Work
         rdf:about="">
        <dc:format>image/svg+xml</dc:format>
        <dc:type
           rdf:resource="http://purl.org/dc/dcmitype/StillImage" />
        <dc:title />
      </cc:Work>
    </rdf:RDF>
  </metadata>
  <g
     inkscape:label="Ebene 1"
     inkscape:groupmode="layer"
     id="layer1"
     transform="translate(-236.14284,-337.07646)">
    <g
       inkscape:label="Ebene 1"
       id="layer1-4"
       transform="translate(6.3510742e-5,7.4501953e-5)">
      <rect
         style="fill:#ffffff;fill-opacity:1;fill-rule:evenodd;stroke:#000000;stroke-width:2;stroke-miterlimit:4;stroke-dasharray:none"
         id="rect2987-8-5-81-7-4-9-0"
         y="338.07639"
         x="237.14278"
         ry="40.000004"
         rx="40.000004"
         height="360.00003"
         width="240.00002" />
      <g
         id="g915"
         transform="matrix(0.24999962,0,0,0.66666603,257.14279,358.07639)">
        <path
           id="path898"
           style="fill:#21b1ff;fill-opacity:1;stroke-width:0.435464"
           d="m 43.732422,22.400391 c -11.818666,0 -21.332031,9.513365 -21.332031,21.332031 V 342.40039 c 0,11.81868 9.513365,21.33203 21.332031,21.33203 H 214.40039 c 11.81867,0 21.33203,-9.51335 21.33203,-21.33203 V 43.732422 c 0,-11.818666 -9.51336,-21.332031 -21.33203,-21.332031 z"
           transform="matrix(3.7500058,0,0,1.4062514,-83.999928,-31.499925)" />
        <path
           id="path900"
           style="fill:#ffd800;fill-opacity:1;stroke-width:0.435464"
           d="m 43.732422,22.400391 c -11.818668,0 -21.332031,9.513363 -21.332031,21.332031 V 249.95508 H 235.73242 V 43.732422 c 0,-11.818668 -9.51336,-21.332031 -21.33203,-21.332031 z"
           transform="matrix(3.7500058,0,0,1.4062514,-83.999928,-31.499925)" />
        <path
           id="path902"
           style="fill:#ff218c;fill-opacity:1;stroke-width:0.435464"
           d="m 43.732422,22.400391 c -11.818668,0 -21.332031,9.513363 -21.332031,21.332031 V 136.17773 H 235.73242 V 43.732422 c 0,-11.818668 -9.51336,-21.332031 -21.33203,-21.332031 z"
           transform="matrix(3.7500058,0,0,1.4062514,-83.999928,-31.499925)" />
      </g>
      <path
         inkscape:connector-curvature="0"
         style="fill:#ffffff;fill-opacity:1;fill-rule:evenodd;stroke:none;stroke-width:4"
         id="path3773-0-4-8-4-60-3-86-29-8-8-8"
         d="m 417.14279,418.0763 c -88.36556,0 -160.00001,71.63444 -160.00001,160.00001 0,22.0914 17.9086,40 40.00001,40 88.36556,0 160,-71.63444 160,-160.00001 0,-22.0914 -17.9086,-40 -40,-40 z" />
    </g>
    <path
       inkscape:connector-curvature="0"
       style="fill:#ffd800;fill-opacity:1;stroke:none;stroke-width:4"
       id="rect3980-7-6-2-9-5-60-2-9"
       d="m 352.34287,458.07647 -39.20004,79.99993 v 20 h 48 v 20.00008 h 20.00001 V 558.0764 h 12 v -20 h -12 v -39.99989 h -20.00001 v 39.99989 h -27.2 l 39.2,-79.99993 z" />
    <path
       inkscape:connector-curvature="0"
       style="fill:#ffffff;fill-opacity:1;stroke:none;stroke-width:4"
       id="rect3980-7-6-2-9-5-60-5-3-2"
       d="m 286.34283,368.07639 -19.6,40 v 10.00004 h 24 v 10.00004 h 10 v -10.00004 h 6 v -10.00004 h -6 v -19.99996 h -10 v 19.99996 h -13.6 l 19.6,-40 z" />
    <path
       inkscape:connector-curvature="0"
       style="fill:#ffffff;fill-opacity:1;stroke:none;stroke-width:4"
       id="rect3980-7-6-2-9-5-60-5-3-9-0"
       d="m 427.14284,668.0764 19.6,-40 v -10.00004 h -24 v -10.00004 h -10 v 10.00004 h -6 v 10.00004 h 6 v 19.99996 h 10 V 628.0764 h 13.6 l -19.6,40 z" />
  </g>
</svg>
