<?xml version="1.0" encoding="UTF-8" standalone="no"?>
<svg
   xmlns:dc="http://purl.org/dc/elements/1.1/"
   xmlns:cc="http://creativecommons.org/ns#"
   xmlns:rdf="http://www.w3.org/1999/02/22-rdf-syntax-ns#"
   xmlns:svg="http://www.w3.org/2000/svg"
   xmlns="http://www.w3.org/2000/svg"
   xmlns:sodipodi="http://sodipodi.sourceforge.net/DTD/sodipodi-0.dtd"
   xmlns:inkscape="http://www.inkscape.org/namespaces/inkscape"
   width="68.297775mm"
   height="102.16444mm"
   viewBox="0 0 241.99999 362"
   id="svg6717"
   version="1.1"
   inkscape:version="1.0.2 (e86c870879, 2021-01-15)"
   sodipodi:docname="y_9.svg">
  <defs
     id="defs6719" />
  <sodipodi:namedview
     id="base"
     pagecolor="#ffffff"
     bordercolor="#666666"
     borderopacity="1.0"
     inkscape:pageopacity="0.0"
     inkscape:pageshadow="2"
     inkscape:zoom="1.979899"
     inkscape:cx="56.062211"
     inkscape:cy="208.21534"
     inkscape:document-units="px"
     inkscape:current-layer="layer1"
     showgrid="false"
     fit-margin-top="0"
     fit-margin-left="0"
     fit-margin-right="0"
     fit-margin-bottom="0"
     inkscape:window-width="1920"
     inkscape:window-height="1029"
     inkscape:window-x="0"
     inkscape:window-y="0"
     inkscape:window-maximized="1"
     inkscape:document-rotation="0" />
  <metadata
     id="metadata6722">
    <rdf:RDF>
      <cc:Work
         rdf:about="">
        <dc:format>image/svg+xml</dc:format>
        <dc:type
           rdf:resource="http://purl.org/dc/dcmitype/StillImage" />
        <dc:title />
      </cc:Work>
    </rdf:RDF>
  </metadata>
  <g
     inkscape:label="Ebene 1"
     inkscape:groupmode="layer"
     id="layer1"
     transform="translate(-236.14284,-337.07646)">
    <g
       inkscape:label="Ebene 1"
       id="layer1-6"
       transform="translate(6.3510742e-5,7.4501953e-5)">
      <rect
         style="fill:#ffffff;fill-opacity:1;fill-rule:evenodd;stroke:#000000;stroke-width:2;stroke-miterlimit:4;stroke-dasharray:none"
         id="rect2987-8-5-81-7-4-9-0"
         y="338.07639"
         x="237.14278"
         ry="40.000004"
         rx="40.000004"
         height="360.00003"
         width="240.00002" />
      <g
         id="g915"
         transform="matrix(0.24999962,0,0,0.66666603,257.14279,358.07639)">
        <path
           id="path898"
           style="fill:#21b1ff;fill-opacity:1;stroke-width:0.435464"
           d="m 43.732422,22.400391 c -11.818666,0 -21.332031,9.513365 -21.332031,21.332031 V 342.40039 c 0,11.81868 9.513365,21.33203 21.332031,21.33203 H 214.40039 c 11.81867,0 21.33203,-9.51335 21.33203,-21.33203 V 43.732422 c 0,-11.818666 -9.51336,-21.332031 -21.33203,-21.332031 z"
           transform="matrix(3.7500058,0,0,1.4062514,-83.999928,-31.499925)" />
        <path
           id="path900"
           style="fill:#ffd800;fill-opacity:1;stroke-width:0.435464"
           d="m 43.732422,22.400391 c -11.818668,0 -21.332031,9.513363 -21.332031,21.332031 V 249.95508 H 235.73242 V 43.732422 c 0,-11.818668 -9.51336,-21.332031 -21.33203,-21.332031 z"
           transform="matrix(3.7500058,0,0,1.4062514,-83.999928,-31.499925)" />
        <path
           id="path902"
           style="fill:#ff218c;fill-opacity:1;stroke-width:0.435464"
           d="m 43.732422,22.400391 c -11.818668,0 -21.332031,9.513363 -21.332031,21.332031 V 136.17773 H 235.73242 V 43.732422 c 0,-11.818668 -9.51336,-21.332031 -21.33203,-21.332031 z"
           transform="matrix(3.7500058,0,0,1.4062514,-83.999928,-31.499925)" />
      </g>
      <path
         inkscape:connector-curvature="0"
         style="fill:#ffffff;fill-opacity:1;fill-rule:evenodd;stroke:none;stroke-width:4"
         id="path3773-0-4-8-4-60-3-86-29-8-8-8"
         d="m 417.14279,418.0763 c -88.36556,0 -160.00001,71.63444 -160.00001,160.00001 0,22.0914 17.9086,40 40.00001,40 88.36556,0 160,-71.63444 160,-160.00001 0,-22.0914 -17.9086,-40 -40,-40 z" />
    </g>
    <path
       inkscape:connector-curvature="0"
       style="fill:#ffd800;fill-opacity:1;fill-rule:evenodd;stroke:none;stroke-width:4"
       id="path3962-5-8-3"
       d="m 357.14281,458.07639 c -22.0914,0 -40,17.9086 -40,40 0,22.09141 17.9086,40.00001 40,40.00001 7.268,0 14.12628,-1.98696 20,-5.375 v 5.375 c 0,11.04568 -8.95432,20 -20,20 -7.81704,0 -14.4604,-4.58816 -17.75,-11.125 l -18,9 c 6.55708,13.13744 20.06904,22.125 35.75,22.125 22.09141,0 40.00001,-17.9086 40.00001,-40 v -40.00001 c 0,-22.0914 -17.9086,-40 -40.00001,-40 z m 0,20 c 11.04568,0 20,8.95432 20,20 0,11.04569 -8.95432,20.00001 -20,20.00001 -11.04568,0 -20,-8.95432 -20,-20.00001 0,-11.04568 8.95432,-20 20,-20 z m -20,104.00001 v 8 h 40 v -8 z" />
    <path
       inkscape:connector-curvature="0"
       style="fill:#ffffff;fill-opacity:1;fill-rule:evenodd;stroke:none;stroke-width:4"
       id="path3962-5-6-2-1-9-6"
       d="m 287.14281,428.07643 c 11.04572,0 20,-8.95436 20,-20.00004 v -19.99992 c 0,-11.04572 -8.95428,-20.00004 -20,-20.00004 -11.04568,0 -20,8.95432 -20,20.00004 0,11.04564 8.95432,19.99992 20,19.99992 3.634,0 7.06316,-0.99348 10,-2.68748 v 2.68748 c 0,5.52284 -4.47716,10 -10,10 -3.90848,0 -7.2302,-2.29404 -8.87496,-5.56248 l -9,4.5 c 3.27848,6.56872 10.03448,11.06252 17.87496,11.06252 z m 0,-30 c -5.5228,0 -9.99996,-4.47712 -9.99996,-9.99996 0,-5.52284 4.47716,-10.00004 9.99996,-10.00004 5.52284,0 10,4.4772 10,10.00004 0,5.52284 -4.47716,9.99996 -10,9.99996 z" />
    <path
       inkscape:connector-curvature="0"
       style="fill:#ffffff;fill-opacity:1;fill-rule:evenodd;stroke:none;stroke-width:4"
       id="path3962-5-6-2-1-8-7-7"
       d="m 427.14282,608.07636 c -11.04572,0 -20,8.95436 -20,20.00004 v 19.99992 c 0,11.04572 8.95428,20.00004 20,20.00004 11.04568,0 20,-8.95432 20,-20.00004 0,-11.04564 -8.95432,-19.99992 -20,-19.99992 -3.634,0 -7.06316,0.99348 -10,2.68748 v -2.68748 c 0,-5.52284 4.47716,-10 10,-10 3.90848,0 7.2302,2.29404 8.87496,5.56248 l 9,-4.5 c -3.27848,-6.56872 -10.03448,-11.06252 -17.87496,-11.06252 z m 0,30 c 5.5228,0 9.99996,4.47712 9.99996,9.99996 0,5.52284 -4.47716,10.00004 -9.99996,10.00004 -5.52284,0 -10,-4.4772 -10,-10.00004 0,-5.52284 4.47716,-9.99996 10,-9.99996 z" />
  </g>
</svg>
