<?xml version="1.0" encoding="UTF-8" standalone="no"?>
<svg
   xmlns:dc="http://purl.org/dc/elements/1.1/"
   xmlns:cc="http://creativecommons.org/ns#"
   xmlns:rdf="http://www.w3.org/1999/02/22-rdf-syntax-ns#"
   xmlns:svg="http://www.w3.org/2000/svg"
   xmlns="http://www.w3.org/2000/svg"
   xmlns:sodipodi="http://sodipodi.sourceforge.net/DTD/sodipodi-0.dtd"
   xmlns:inkscape="http://www.inkscape.org/namespaces/inkscape"
   width="68.297775mm"
   height="102.16444mm"
   viewBox="0 0 241.99999 362"
   id="svg6717"
   version="1.1"
   inkscape:version="1.0.2 (e86c870879, 2021-01-15)"
   sodipodi:docname="y_draw.svg">
  <defs
     id="defs6719" />
  <sodipodi:namedview
     id="base"
     pagecolor="#ffffff"
     bordercolor="#666666"
     borderopacity="1.0"
     inkscape:pageopacity="0.0"
     inkscape:pageshadow="2"
     inkscape:zoom="1.979899"
     inkscape:cx="56.062211"
     inkscape:cy="208.21534"
     inkscape:document-units="px"
     inkscape:current-layer="layer1"
     showgrid="false"
     fit-margin-top="0"
     fit-margin-left="0"
     fit-margin-right="0"
     fit-margin-bottom="0"
     inkscape:window-width="1920"
     inkscape:window-height="1029"
     inkscape:window-x="0"
     inkscape:window-y="0"
     inkscape:window-maximized="1"
     inkscape:document-rotation="0" />
  <metadata
     id="metadata6722">
    <rdf:RDF>
      <cc:Work
         rdf:about="">
        <dc:format>image/svg+xml</dc:format>
        <dc:type
           rdf:resource="http://purl.org/dc/dcmitype/StillImage" />
        <dc:title />
      </cc:Work>
    </rdf:RDF>
  </metadata>
  <g
     inkscape:label="Ebene 1"
     inkscape:groupmode="layer"
     id="layer1"
     transform="translate(-236.14284,-337.07646)">
    <rect
       style="fill:#ffffff;fill-opacity:1;fill-rule:evenodd;stroke:#000000;stroke-width:2;stroke-miterlimit:4;stroke-dasharray:none"
       id="rect2987-8-5-81-7-4-9-0"
       y="338.07639"
       x="237.14278"
       ry="40.000004"
       rx="40.000004"
       height="360.00003"
       width="240.00002" />
    <g
       id="g915"
       transform="matrix(0.24999962,0,0,0.66666603,257.14279,358.07639)">
      <path
         id="path898"
         style="fill:#21b1ff;fill-opacity:1;stroke-width:0.435464"
         d="m 43.732422,22.400391 c -11.818666,0 -21.332031,9.513365 -21.332031,21.332031 V 342.40039 c 0,11.81868 9.513365,21.33203 21.332031,21.33203 H 214.40039 c 11.81867,0 21.33203,-9.51335 21.33203,-21.33203 V 43.732422 c 0,-11.818666 -9.51336,-21.332031 -21.33203,-21.332031 z"
         transform="matrix(3.7500058,0,0,1.4062514,-83.999928,-31.499925)" />
      <path
         id="path900"
         style="fill:#ffd800;fill-opacity:1;stroke-width:0.435464"
         d="m 43.732422,22.400391 c -11.818668,0 -21.332031,9.513363 -21.332031,21.332031 V 249.95508 H 235.73242 V 43.732422 c 0,-11.818668 -9.51336,-21.332031 -21.33203,-21.332031 z"
         transform="matrix(3.7500058,0,0,1.4062514,-83.999928,-31.499925)" />
      <path
         id="path902"
         style="fill:#ff218c;fill-opacity:1;stroke-width:0.435464"
         d="m 43.732422,22.400391 c -11.818668,0 -21.332031,9.513363 -21.332031,21.332031 V 136.17773 H 235.73242 V 43.732422 c 0,-11.818668 -9.51336,-21.332031 -21.33203,-21.332031 z"
         transform="matrix(3.7500058,0,0,1.4062514,-83.999928,-31.499925)" />
    </g>
    <path
       inkscape:connector-curvature="0"
       style="fill:#ffffff;fill-opacity:1;fill-rule:evenodd;stroke:none;stroke-width:4"
       id="path3773-0-4-8-4-60-3-86-29-8-8-8"
       d="m 417.14279,418.0763 c -88.36556,0 -160.00001,71.63444 -160.00001,160.00001 0,22.0914 17.9086,40 40.00001,40 88.36556,0 160,-71.63444 160,-160.00001 0,-22.0914 -17.9086,-40 -40,-40 z" />
    <rect
       style="fill:#ffffff;fill-opacity:1;fill-rule:evenodd;stroke:#000000;stroke-width:2.03962;stroke-miterlimit:4;stroke-dasharray:none"
       id="rect6095-5-3-3-2"
       transform="matrix(1,0,-0.27472186,0.96152374,0,0)"
       y="507.60709"
       x="459.45074"
       ry="9.3911991"
       rx="10.000001"
       height="93.601486"
       width="60.000004" />
    <rect
       style="fill:#ff218c;fill-opacity:1;fill-rule:evenodd;stroke:none;stroke-width:4"
       id="rect6097-3-7-8-3"
       transform="matrix(1,0,-0.27472186,0.96152374,0,0)"
       y="518.0072"
       x="469.45074"
       ry="9.3911524"
       rx="9.9999504"
       height="72.801125"
       width="40.000004" />
    <rect
       style="fill:#ffffff;fill-opacity:1;fill-rule:evenodd;stroke:#000000;stroke-width:2.03962;stroke-miterlimit:4;stroke-dasharray:none"
       id="rect6095-1-1-6-0"
       transform="matrix(1,0,-0.27472186,0.96152374,0,0)"
       y="476.40665"
       x="490.87897"
       ry="9.3911991"
       rx="10.000001"
       height="93.601486"
       width="60.000004" />
    <rect
       style="fill:#21b1ff;fill-opacity:1;fill-rule:evenodd;stroke:none;stroke-width:4"
       id="rect6097-8-0-9-6"
       transform="matrix(1,0,-0.27472186,0.96152374,0,0)"
       y="486.80679"
       x="500.87897"
       ry="9.3911524"
       rx="9.9999504"
       height="72.801125"
       width="40.000004" />
    <path
       inkscape:connector-curvature="0"
       style="fill:#ffffff;fill-opacity:1;fill-rule:evenodd;stroke:none;stroke-width:4"
       id="rect5649-4-2-7-81-5"
       d="m 271.14278,388.07622 v 10.00008 h -10 v 9.99984 h 10 v 10.00008 h 10.00001 v -10.00008 h 10 v -9.99984 h -10 v -10.00008 z" />
    <path
       inkscape:connector-curvature="0"
       style="fill:#ffffff;fill-opacity:1;stroke:none;stroke-width:4"
       id="rect3163-52-9-8-1-1-2-7-3-6-0-9-5-9-2-8-0"
       d="m 317.14279,368.0763 c -11.08,0 -20,8.92 -20,20 v 2 h 10 v -2 c 0,-5.54 4.46,-10 10,-10 5.54,0 10,4.46 10,10 0,2.255 -1.87104,6.68028 -3.82492,8.21804 -10.6096,8.34988 -10.4976,6.97088 -26.17508,17.78196 v 14 h 20 20 v -10 -4 h -10 v 4 h -10 -8 c 12.38012,-8.71748 13.2854,-8.5062 22.98616,-17.18748 3.10816,-2.78152 5.01384,-8.30212 5.01384,-12.81252 0,-11.08 -8.92,-20 -20,-20 z" />
    <path
       inkscape:connector-curvature="0"
       style="fill:#ffffff;fill-opacity:1;fill-rule:evenodd;stroke:none;stroke-width:4"
       id="rect5649-4-2-7-0-3-9"
       d="m 443.14279,648.07683 v -10 h 10 v -9.9996 h -10 v -10.0004 h -10 v 10.0004 h -10 v 9.9996 h 10 v 10 z" />
    <path
       inkscape:connector-curvature="0"
       style="fill:#ffffff;fill-opacity:1;stroke:none;stroke-width:4"
       id="rect3163-52-9-8-1-1-2-7-3-6-0-9-5-9-2-2-03-7"
       d="m 397.14279,668.07683 c 11.08,0 20,-8.92 20,-20 v -2 h -10 v 2 c 0,5.54 -4.46,10 -10,10 -5.54,0 -10,-4.46 -10,-10 0,-2.2548 1.87104,-6.68 3.82492,-8.218 10.6096,-8.3496 10.4976,-6.9708 26.17508,-17.782 v -14 h -20 -20 v 10 4 h 10 v -4 h 10 8 c -12.38012,8.7176 -13.2854,8.5064 -22.98616,17.1876 -3.10816,2.7816 -5.01384,8.302 -5.01384,12.8124 0,11.08 8.92,20 20,20 z" />
  </g>
</svg>
