<?xml version="1.0" encoding="UTF-8" standalone="no"?>
<svg
   xmlns:dc="http://purl.org/dc/elements/1.1/"
   xmlns:cc="http://creativecommons.org/ns#"
   xmlns:rdf="http://www.w3.org/1999/02/22-rdf-syntax-ns#"
   xmlns:svg="http://www.w3.org/2000/svg"
   xmlns="http://www.w3.org/2000/svg"
   xmlns:sodipodi="http://sodipodi.sourceforge.net/DTD/sodipodi-0.dtd"
   xmlns:inkscape="http://www.inkscape.org/namespaces/inkscape"
   width="68.297775mm"
   height="102.16444mm"
   viewBox="0 0 241.99999 362"
   id="svg6717"
   version="1.1"
   inkscape:version="1.0.2 (e86c870879, 2021-01-15)"
   sodipodi:docname="y_skip.svg">
  <defs
     id="defs6719" />
  <sodipodi:namedview
     id="base"
     pagecolor="#ffffff"
     bordercolor="#666666"
     borderopacity="1.0"
     inkscape:pageopacity="0.0"
     inkscape:pageshadow="2"
     inkscape:zoom="1.979899"
     inkscape:cx="56.062211"
     inkscape:cy="208.21534"
     inkscape:document-units="px"
     inkscape:current-layer="layer1"
     showgrid="false"
     fit-margin-top="0"
     fit-margin-left="0"
     fit-margin-right="0"
     fit-margin-bottom="0"
     inkscape:window-width="1920"
     inkscape:window-height="1029"
     inkscape:window-x="0"
     inkscape:window-y="0"
     inkscape:window-maximized="1"
     inkscape:document-rotation="0" />
  <metadata
     id="metadata6722">
    <rdf:RDF>
      <cc:Work
         rdf:about="">
        <dc:format>image/svg+xml</dc:format>
        <dc:type
           rdf:resource="http://purl.org/dc/dcmitype/StillImage" />
        <dc:title />
      </cc:Work>
    </rdf:RDF>
  </metadata>
  <g
     inkscape:label="Ebene 1"
     inkscape:groupmode="layer"
     id="layer1"
     transform="translate(-236.14284,-337.07646)">
    <g
       inkscape:label="Ebene 1"
       id="layer1-3"
       transform="translate(6.3510742e-5,7.4501953e-5)">
      <rect
         style="fill:#ffffff;fill-opacity:1;fill-rule:evenodd;stroke:#000000;stroke-width:2;stroke-miterlimit:4;stroke-dasharray:none"
         id="rect2987-8-5-81-7-4-9-0"
         y="338.07639"
         x="237.14278"
         ry="40.000004"
         rx="40.000004"
         height="360.00003"
         width="240.00002" />
      <g
         id="g915"
         transform="matrix(0.24999962,0,0,0.66666603,257.14279,358.07639)">
        <path
           id="path898"
           style="fill:#21b1ff;fill-opacity:1;stroke-width:0.435464"
           d="m 43.732422,22.400391 c -11.818666,0 -21.332031,9.513365 -21.332031,21.332031 V 342.40039 c 0,11.81868 9.513365,21.33203 21.332031,21.33203 H 214.40039 c 11.81867,0 21.33203,-9.51335 21.33203,-21.33203 V 43.732422 c 0,-11.818666 -9.51336,-21.332031 -21.33203,-21.332031 z"
           transform="matrix(3.7500058,0,0,1.4062514,-83.999928,-31.499925)" />
        <path
           id="path900"
           style="fill:#ffd800;fill-opacity:1;stroke-width:0.435464"
           d="m 43.732422,22.400391 c -11.818668,0 -21.332031,9.513363 -21.332031,21.332031 V 249.95508 H 235.73242 V 43.732422 c 0,-11.818668 -9.51336,-21.332031 -21.33203,-21.332031 z"
           transform="matrix(3.7500058,0,0,1.4062514,-83.999928,-31.499925)" />
        <path
           id="path902"
           style="fill:#ff218c;fill-opacity:1;stroke-width:0.435464"
           d="m 43.732422,22.400391 c -11.818668,0 -21.332031,9.513363 -21.332031,21.332031 V 136.17773 H 235.73242 V 43.732422 c 0,-11.818668 -9.51336,-21.332031 -21.33203,-21.332031 z"
           transform="matrix(3.7500058,0,0,1.4062514,-83.999928,-31.499925)" />
      </g>
      <path
         inkscape:connector-curvature="0"
         style="fill:#ffffff;fill-opacity:1;fill-rule:evenodd;stroke:none;stroke-width:4"
         id="path3773-0-4-8-4-60-3-86-29-8-8-8"
         d="m 417.14279,418.0763 c -88.36556,0 -160.00001,71.63444 -160.00001,160.00001 0,22.0914 17.9086,40 40.00001,40 88.36556,0 160,-71.63444 160,-160.00001 0,-22.0914 -17.9086,-40 -40,-40 z" />
    </g>
    <path
       inkscape:connector-curvature="0"
       style="fill:#ffd800;fill-opacity:1;fill-rule:evenodd;stroke:none;stroke-width:4"
       id="path5897-6-5-9"
       d="m 357.26783,458.07655 c -15.35532,-0.02 -30.76901,5.79964 -42.50001,17.5 -23.462,23.40088 -23.52572,61.41301 -0.1248,84.87501 23.40089,23.462 61.41301,23.52572 84.87501,0.1248 23.462,-23.40088 23.52572,-61.41301 0.1248,-84.87501 -11.70044,-11.731 -27.01968,-17.60496 -42.375,-17.625 z m -0.1248,20 c 6.99952,0.008 14.03088,1.84036 20.25,5.5 l -54.75001,54.75001 c -9.0414,-15.35124 -6.94724,-35.46201 6.25,-48.62501 7.82068,-7.80028 18.01313,-11.63832 28.25001,-11.625 z m 34.5,19.625 c 9.10388,15.36293 6.97356,35.56081 -6.25,48.75001 -13.2108,13.17636 -33.29156,15.11312 -48.62501,6 z" />
    <path
       inkscape:connector-curvature="0"
       style="fill:#ffffff;fill-opacity:1;fill-rule:evenodd;stroke:none;stroke-width:4"
       id="path5897-6-8-2-0"
       d="m 297.20514,368.07639 c -7.6762,-0.012 -15.3816,2.89956 -21.246,8.7492 -11.72876,11.69932 -11.7606,30.70364 -0.0624,42.43356 11.69824,11.72988 30.7008,11.76176 42.4296,0.0624 11.72876,-11.69932 11.76064,-30.70364 0.0624,-42.43352 -5.84916,-5.865 -13.50728,-8.80168 -21.1836,-8.81172 z m -0.0624,9.99912 c 3.49908,0.004 7.01416,0.92004 10.12312,2.74968 l -27.36988,27.37248 c -4.51992,-7.67492 -3.473,-17.72936 3.1244,-24.31024 3.90964,-3.8998 9.00488,-5.81864 14.12236,-5.81192 z m 17.2468,9.81152 c 4.55108,7.6808 3.48612,17.7788 -3.12444,24.37276 -6.60416,6.5876 -16.64268,7.55588 -24.30796,2.99972 z" />
    <path
       inkscape:connector-curvature="0"
       style="fill:#ffffff;fill-opacity:1;fill-rule:evenodd;stroke:none;stroke-width:4"
       id="path5897-6-8-5-3"
       d="m 417.20515,608.0764 c -7.6762,-0.012 -15.3816,2.89956 -21.246,8.7492 -11.72876,11.69932 -11.7606,30.70364 -0.0624,42.43356 11.69824,11.72988 30.7008,11.76176 42.4296,0.0624 11.72876,-11.69932 11.76064,-30.70364 0.0624,-42.43352 -5.84916,-5.865 -13.50728,-8.80168 -21.1836,-8.81172 z m -0.0624,9.99912 c 3.49908,0.004 7.01416,0.92004 10.12312,2.74968 l -27.36988,27.37248 c -4.51992,-7.67492 -3.473,-17.72936 3.1244,-24.31024 3.90964,-3.8998 9.00488,-5.81864 14.12236,-5.81192 z m 17.2468,9.81152 c 4.55108,7.6808 3.48612,17.7788 -3.12444,24.37276 -6.60416,6.5876 -16.64268,7.55588 -24.30796,2.99972 z" />
  </g>
</svg>
